# xmcd CD database file
#
# Track frame offsets:
#	150
#	28180
#	41127
#	59095
#	85457
#	95785
#	146557
#	172482
#	192740
#	201277
#	227615
#
# Disc length: 3185 seconds
#
# Revision: 0
# Processed by: cddbd v1.5.2PL0 Copyright (c) Steve Scherf et al.
# Submitted via: CDex 1.70beta2
#
DISCID=b30c6f0b
DTITLE=McMahan, Gary - Live In Elko, Nevada!
DYEAR=2000
DGENRE=Country
TTITLE0=Yodelin' Man
TTITLE1=Big Enough to Do the Job
TTITLE2=My Husband and I
TTITLE3=Gettin' in Nature's Way
TTITLE4=Cutie Pie
TTITLE5=Pere 'n' Pat
TTITLE6=The Bullrider
TTITLE7=The Ol' Double Diamond
TTITLE8=Grandpa's Early Mornin's
TTITLE9=Grizzly Bears
TTITLE10=Yodel Poem
EXTD=YEAR: 2000
EXTT0=
EXTT1=
EXTT2=
EXTT3=
EXTT4=
EXTT5=
EXTT6=
EXTT7=
EXTT8=
EXTT9=
EXTT10=
PLAYORDER=
